<?xml version="1.0" encoding="UTF-8" standalone="no"?><svg xmlns="http://www.w3.org/2000/svg" xmlns:xlink="http://www.w3.org/1999/xlink" contentScriptType="application/ecmascript" contentStyleType="text/css" height="917px" preserveAspectRatio="none" style="width:437px;height:917px;" version="1.1" viewBox="0 0 437 917" width="437px" zoomAndPan="magnify"><defs><filter height="300%" id="fg4ot4vrex5yb" width="300%" x="-1" y="-1"><feGaussianBlur result="blurOut" stdDeviation="2.0"/><feColorMatrix in="blurOut" result="blurOut2" type="matrix" values="0 0 0 0 0 0 0 0 0 0 0 0 0 0 0 0 0 0 .4 0"/><feOffset dx="4.0" dy="4.0" in="blurOut2" result="blurOut3"/><feBlend in="SourceGraphic" in2="blurOut3" mode="normal"/></filter></defs><g><rect fill="#FEFECE" filter="url(#fg4ot4vrex5yb)" height="40.2719" rx="12.5" ry="12.5" style="stroke: #A80036; stroke-width: 1.5;" width="71" x="10" y="443.195"/><text fill="#000000" font-family="sans-serif" font-size="14" lengthAdjust="spacingAndGlyphs" textLength="51" x="20" y="469.4349">Java EA</text><rect fill="#FEFECE" filter="url(#fg4ot4vrex5yb)" height="40.2719" rx="12.5" ry="12.5" style="stroke: #A80036; stroke-width: 1.5;" width="94" x="131" y="110.4079"/><text fill="#000000" font-family="sans-serif" font-size="14" lengthAdjust="spacingAndGlyphs" textLength="74" x="141" y="136.6478">Spring 框架</text><rect fill="#FEFECE" filter="url(#fg4ot4vrex5yb)" height="40.2719" rx="12.5" ry="12.5" style="stroke: #A80036; stroke-width: 1.5;" width="65" x="275" y="20"/><text fill="#000000" font-family="sans-serif" font-size="14" lengthAdjust="spacingAndGlyphs" textLength="45" x="285" y="46.2399">Servlet</text><path d="M225,130.5438 L235,130.5438 C250,130.5438 250,40.136 265,40.136 L275,40.136 " fill="none" style="stroke: #A80036; stroke-width: 1.0;"/><rect fill="#FEFECE" filter="url(#fg4ot4vrex5yb)" height="40.2719" rx="12.5" ry="12.5" style="stroke: #A80036; stroke-width: 1.5;" width="91" x="275" y="80.2719"/><text fill="#000000" font-family="sans-serif" font-size="14" lengthAdjust="spacingAndGlyphs" textLength="71" x="285" y="106.5118">Spring框架</text><path d="M225,130.5438 L235,130.5438 C250,130.5438 250,100.4079 265,100.4079 L275,100.4079 " fill="none" style="stroke: #A80036; stroke-width: 1.0;"/><rect fill="#FEFECE" filter="url(#fg4ot4vrex5yb)" height="40.2719" rx="12.5" ry="12.5" style="stroke: #A80036; stroke-width: 1.5;" width="89" x="275" y="140.5438"/><text fill="#000000" font-family="sans-serif" font-size="14" lengthAdjust="spacingAndGlyphs" textLength="69" x="285" y="166.7838">Spring IOC</text><path d="M225,130.5438 L235,130.5438 C250,130.5438 250,160.6798 265,160.6798 L275,160.6798 " fill="none" style="stroke: #A80036; stroke-width: 1.0;"/><rect fill="#FEFECE" filter="url(#fg4ot4vrex5yb)" height="40.2719" rx="12.5" ry="12.5" style="stroke: #A80036; stroke-width: 1.5;" width="94" x="275" y="200.8157"/><text fill="#000000" font-family="sans-serif" font-size="14" lengthAdjust="spacingAndGlyphs" textLength="74" x="285" y="227.0557">Spring AOP</text><path d="M225,130.5438 L235,130.5438 C250,130.5438 250,220.9517 265,220.9517 L275,220.9517 " fill="none" style="stroke: #A80036; stroke-width: 1.0;"/><path d="M81,463.3309 L91,463.3309 C106,463.3309 106,130.5438 121,130.5438 L131,130.5438 " fill="none" style="stroke: #A80036; stroke-width: 1.0;"/><rect fill="#FEFECE" filter="url(#fg4ot4vrex5yb)" height="40.2719" rx="12.5" ry="12.5" style="stroke: #A80036; stroke-width: 1.5;" width="94" x="131" y="397.991"/><text fill="#000000" font-family="sans-serif" font-size="14" lengthAdjust="spacingAndGlyphs" textLength="74" x="141" y="424.231">Spring MVC</text><text fill="#000000" font-family="sans-serif" font-size="14" lengthAdjust="spacingAndGlyphs" textLength="102" x="278" y="268.3276">Spring MVC框架</text><path d="M225,418.127 L235,418.127 C250,418.127 250,262.2236 265,262.2236 L275,262.2236 " fill="none" style="stroke: #A80036; stroke-width: 1.0;"/><text fill="#000000" font-family="sans-serif" font-size="14" lengthAdjust="spacingAndGlyphs" textLength="55" x="278" y="290.5995">URL路由</text><path d="M225,418.127 L235,418.127 C250,418.127 250,284.4955 265,284.4955 L275,284.4955 " fill="none" style="stroke: #A80036; stroke-width: 1.0;"/><text fill="#000000" font-family="sans-serif" font-size="14" lengthAdjust="spacingAndGlyphs" textLength="56" x="278" y="312.8714">路经变量</text><path d="M225,418.127 L235,418.127 C250,418.127 250,306.7674 265,306.7674 L275,306.7674 " fill="none" style="stroke: #A80036; stroke-width: 1.0;"/><text fill="#000000" font-family="sans-serif" font-size="14" lengthAdjust="spacingAndGlyphs" textLength="98" x="278" y="335.1433">请求的参数处理</text><path d="M225,418.127 L235,418.127 C250,418.127 250,329.0393 265,329.0393 L275,329.0393 " fill="none" style="stroke: #A80036; stroke-width: 1.0;"/><text fill="#000000" font-family="sans-serif" font-size="14" lengthAdjust="spacingAndGlyphs" textLength="56" x="278" y="357.4152">模板渲染</text><path d="M225,418.127 L235,418.127 C250,418.127 250,351.3112 265,351.3112 L275,351.3112 " fill="none" style="stroke: #A80036; stroke-width: 1.0;"/><text fill="#000000" font-family="sans-serif" font-size="14" lengthAdjust="spacingAndGlyphs" textLength="56" x="278" y="379.6871">分页处理</text><path d="M225,418.127 L235,418.127 C250,418.127 250,373.5832 265,373.5832 L275,373.5832 " fill="none" style="stroke: #A80036; stroke-width: 1.0;"/><text fill="#000000" font-family="sans-serif" font-size="14" lengthAdjust="spacingAndGlyphs" textLength="56" x="278" y="401.959">表单提交</text><path d="M225,418.127 L235,418.127 C250,418.127 250,395.8551 265,395.8551 L275,395.8551 " fill="none" style="stroke: #A80036; stroke-width: 1.0;"/><text fill="#000000" font-family="sans-serif" font-size="14" lengthAdjust="spacingAndGlyphs" textLength="56" x="278" y="424.231">表单验证</text><path d="M225,418.127 L235,418.127 C250,418.127 250,418.127 265,418.127 L275,418.127 " fill="none" style="stroke: #A80036; stroke-width: 1.0;"/><text fill="#000000" font-family="sans-serif" font-size="14" lengthAdjust="spacingAndGlyphs" textLength="98" x="278" y="446.5029">Flash Attribute</text><path d="M225,418.127 L235,418.127 C250,418.127 250,440.3989 265,440.3989 L275,440.3989 " fill="none" style="stroke: #A80036; stroke-width: 1.0;"/><text fill="#000000" font-family="sans-serif" font-size="14" lengthAdjust="spacingAndGlyphs" textLength="42" x="278" y="468.7748">拦截器</text><path d="M225,418.127 L235,418.127 C250,418.127 250,462.6708 265,462.6708 L275,462.6708 " fill="none" style="stroke: #A80036; stroke-width: 1.0;"/><text fill="#000000" font-family="sans-serif" font-size="14" lengthAdjust="spacingAndGlyphs" textLength="147" x="278" y="491.0467">处理PUT和DELETE请求</text><path d="M225,418.127 L235,418.127 C250,418.127 250,484.9427 265,484.9427 L275,484.9427 " fill="none" style="stroke: #A80036; stroke-width: 1.0;"/><text fill="#000000" font-family="sans-serif" font-size="14" lengthAdjust="spacingAndGlyphs" textLength="56" x="278" y="513.3186">文件上传</text><path d="M225,418.127 L235,418.127 C250,418.127 250,507.2146 265,507.2146 L275,507.2146 " fill="none" style="stroke: #A80036; stroke-width: 1.0;"/><text fill="#000000" font-family="sans-serif" font-size="14" lengthAdjust="spacingAndGlyphs" textLength="56" x="278" y="535.5905">异常处理</text><path d="M225,418.127 L235,418.127 C250,418.127 250,529.4865 265,529.4865 L275,529.4865 " fill="none" style="stroke: #A80036; stroke-width: 1.0;"/><text fill="#000000" font-family="sans-serif" font-size="14" lengthAdjust="spacingAndGlyphs" textLength="34" x="278" y="557.8624">AJAX</text><path d="M225,418.127 L235,418.127 C250,418.127 250,551.7585 265,551.7585 L275,551.7585 " fill="none" style="stroke: #A80036; stroke-width: 1.0;"/><text fill="#000000" font-family="sans-serif" font-size="14" lengthAdjust="spacingAndGlyphs" textLength="112" x="278" y="580.1343">博客项目实践指导</text><path d="M225,418.127 L235,418.127 C250,418.127 250,574.0304 265,574.0304 L275,574.0304 " fill="none" style="stroke: #A80036; stroke-width: 1.0;"/><path d="M81,463.3309 L91,463.3309 C106,463.3309 106,418.127 121,418.127 L131,418.127 " fill="none" style="stroke: #A80036; stroke-width: 1.0;"/><rect fill="#FEFECE" filter="url(#fg4ot4vrex5yb)" height="40.2719" rx="12.5" ry="12.5" style="stroke: #A80036; stroke-width: 1.5;" width="119" x="131" y="625.3023"/><text fill="#000000" font-family="sans-serif" font-size="14" lengthAdjust="spacingAndGlyphs" textLength="99" x="141" y="651.5422">Spring-Mybatis</text><rect fill="#FEFECE" filter="url(#fg4ot4vrex5yb)" height="40.2719" rx="12.5" ry="12.5" style="stroke: #A80036; stroke-width: 1.5;" width="46" x="300" y="595.1663"/><text fill="#000000" font-family="sans-serif" font-size="14" lengthAdjust="spacingAndGlyphs" textLength="26" x="310" y="621.4063">SQL</text><path d="M250,645.4382 L260,645.4382 C275,645.4382 275,615.3023 290,615.3023 L300,615.3023 " fill="none" style="stroke: #A80036; stroke-width: 1.0;"/><rect fill="#FEFECE" filter="url(#fg4ot4vrex5yb)" height="40.2719" rx="12.5" ry="12.5" style="stroke: #A80036; stroke-width: 1.5;" width="106" x="300" y="655.4382"/><text fill="#000000" font-family="sans-serif" font-size="14" lengthAdjust="spacingAndGlyphs" textLength="86" x="310" y="681.6782">Mybatis-ORM</text><path d="M250,645.4382 L260,645.4382 C275,645.4382 275,675.5742 290,675.5742 L300,675.5742 " fill="none" style="stroke: #A80036; stroke-width: 1.0;"/><path d="M81,463.3309 L91,463.3309 C106,463.3309 106,645.4382 121,645.4382 L131,645.4382 " fill="none" style="stroke: #A80036; stroke-width: 1.0;"/><rect fill="#FEFECE" filter="url(#fg4ot4vrex5yb)" height="40.2719" rx="12.5" ry="12.5" style="stroke: #A80036; stroke-width: 1.5;" width="119" x="131" y="685.5742"/><text fill="#000000" font-family="sans-serif" font-size="14" lengthAdjust="spacingAndGlyphs" textLength="99" x="141" y="711.8141">Spring Security</text><path d="M81,463.3309 L91,463.3309 C106,463.3309 106,705.7101 121,705.7101 L131,705.7101 " fill="none" style="stroke: #A80036; stroke-width: 1.0;"/><rect fill="#FEFECE" filter="url(#fg4ot4vrex5yb)" height="40.2719" rx="12.5" ry="12.5" style="stroke: #A80036; stroke-width: 1.5;" width="76" x="131" y="745.8461"/><text fill="#000000" font-family="sans-serif" font-size="14" lengthAdjust="spacingAndGlyphs" textLength="56" x="141" y="772.086">缓存系统</text><path d="M81,463.3309 L91,463.3309 C106,463.3309 106,765.9821 121,765.9821 L131,765.9821 " fill="none" style="stroke: #A80036; stroke-width: 1.0;"/><rect fill="#FEFECE" filter="url(#fg4ot4vrex5yb)" height="40.2719" rx="12.5" ry="12.5" style="stroke: #A80036; stroke-width: 1.5;" width="90" x="131" y="806.118"/><text fill="#000000" font-family="sans-serif" font-size="14" lengthAdjust="spacingAndGlyphs" textLength="70" x="141" y="832.3579">分布式系统</text><path d="M81,463.3309 L91,463.3309 C106,463.3309 106,826.254 121,826.254 L131,826.254 " fill="none" style="stroke: #A80036; stroke-width: 1.0;"/><rect fill="#FEFECE" filter="url(#fg4ot4vrex5yb)" height="40.2719" rx="12.5" ry="12.5" style="stroke: #A80036; stroke-width: 1.5;" width="76" x="131" y="866.3899"/><text fill="#000000" font-family="sans-serif" font-size="14" lengthAdjust="spacingAndGlyphs" textLength="56" x="141" y="892.6299">容器集成</text><path d="M81,463.3309 L91,463.3309 C106,463.3309 106,886.5259 121,886.5259 L131,886.5259 " fill="none" style="stroke: #A80036; stroke-width: 1.0;"/><!--MD5=[fb4260c514de87194864ebbb468e3226]
@startmindmap
* Java EA
** Spring 框架
*** Servlet
*** Spring框架
*** Spring IOC
*** Spring AOP
** Spring MVC
***_ Spring MVC框架
***_ URL路由
***_ 路经变量
***_ 请求的参数处理
***_ 模板渲染
***_ 分页处理
***_ 表单提交
***_ 表单验证
***_ Flash Attribute
***_ 拦截器
***_ 处理PUT和DELETE请求
***_ 文件上传
***_ 异常处理
***_ AJAX
***_ 博客项目实践指导
** Spring-Mybatis
*** SQL
*** Mybatis-ORM
** Spring Security
** 缓存系统
** 分布式系统
** 容器集成
@endmindmap

PlantUML version 1.2020.06(Sun Apr 05 20:38:32 CST 2020)
(GPL source distribution)
Java Runtime: OpenJDK Runtime Environment
JVM: OpenJDK 64-Bit Server VM
Java Version: 11.0.6+10-post-Ubuntu-1ubuntu119.10.1
Operating System: Linux
Default Encoding: UTF-8
Language: en
Country: US
--></g></svg>